<svg xmlns="http://www.w3.org/2000/svg"
     viewBox="0 0 1024 1024"
     width="199"
     height="48"
     preserveAspectRatio="xMidYMid meet">
<path fill="#000000" opacity="1.000000" stroke="none" 
	d="
M590.655090,482.024109 
	C589.779785,459.716431 589.803101,437.905701 590.671631,416.092590 
	C591.207886,402.623840 591.887024,389.178192 594.664673,375.931976 
	C595.330200,372.758148 596.633972,369.916595 598.679077,367.440643 
	C603.254700,361.901031 608.464294,362.691254 611.385315,369.240967 
	C613.854492,374.777771 613.590698,380.642426 613.463745,386.440063 
	C612.889771,412.647522 608.267334,438.371216 603.908691,464.118378 
	C602.281372,473.731354 600.936218,483.362762 600.316162,494.524200 
	C602.571655,490.816895 604.063171,488.289185 605.630066,485.809113 
	C607.609985,482.675323 609.931519,479.872681 613.392639,478.242828 
	C622.329956,474.034210 628.493652,477.539551 629.211304,487.335663 
	C629.417847,490.154724 629.199036,493.002838 629.344788,495.828888 
	C629.679382,502.316528 633.656311,504.358337 639.096924,500.734802 
	C642.589417,498.408752 645.291565,495.245636 647.709351,491.794556 
	C654.326904,482.348633 662.990784,479.010437 674.031677,481.694763 
	C675.905701,482.150391 677.026917,481.536041 678.540955,480.649017 
	C683.082031,477.988434 686.527893,480.090210 686.231628,485.357117 
	C685.961304,490.161926 684.788696,494.898529 685.117859,499.764709 
	C685.617859,507.156464 690.145630,509.507233 696.237122,505.314758 
	C701.822693,501.470520 705.029297,496.731842 705.150085,489.210876 
	C705.604492,460.934418 706.298889,432.635315 710.687683,404.602509 
	C711.561951,399.018280 712.396423,393.413269 714.754822,388.193237 
	C716.732361,383.816223 719.592346,380.348724 724.864319,380.741058 
	C730.071594,381.128540 731.268860,385.508026 732.282104,389.575256 
	C734.734924,399.420959 732.482178,409.123566 730.807373,418.754608 
	C727.075500,440.215637 721.230103,461.192383 715.337463,483.213043 
	C717.291809,480.846283 718.521484,479.140656 719.968628,477.645386 
	C724.169861,473.304352 729.144958,471.061615 735.283020,472.595276 
	C740.649841,473.936249 742.336731,477.398315 739.967407,482.336639 
	C737.669617,487.125946 734.018982,490.727631 729.534790,493.510040 
	C727.715393,494.638977 725.878235,495.739349 724.075012,496.837006 
	C728.782715,507.194733 737.419250,510.462708 746.924927,505.469666 
	C754.021667,501.741943 760.603699,497.545227 759.918579,487.906097 
	C759.820801,486.529510 760.625183,484.994293 761.299011,483.679565 
	C762.296448,481.733368 763.993896,480.681793 766.246399,481.204407 
	C768.571594,481.743866 769.330017,483.446228 769.292480,485.712616 
	C769.223572,489.870697 769.211914,494.030548 769.249634,498.188995 
	C769.260132,499.342651 769.329407,500.567352 769.721558,501.630493 
	C770.450806,503.607910 770.873840,506.196289 773.474182,506.431274 
	C775.725952,506.634735 776.851501,504.570129 777.934326,502.898315 
	C780.416321,499.066437 781.635376,494.751526 782.669250,490.356812 
	C783.430115,487.122559 784.249756,483.894257 785.235840,480.723206 
	C786.073730,478.028778 788.024658,476.527985 790.921875,476.954102 
	C793.857849,477.385925 794.418945,479.622467 794.381836,482.170380 
	C794.279907,489.166687 794.055847,496.165192 794.150574,503.159180 
	C794.233643,509.297852 797.163391,510.771454 802.467468,507.527557 
	C805.036255,505.956543 807.249207,503.932312 809.286133,501.702850 
	C811.373657,499.418091 812.865173,497.621063 810.599304,494.062012 
	C808.386902,490.587036 809.311218,486.229736 811.567383,482.672638 
	C813.160156,480.161469 815.746338,479.360168 818.575867,480.481171 
	C821.713867,481.724457 821.272156,484.150360 820.474854,486.759827 
	C819.969299,488.414276 818.714111,490.057678 819.826050,492.196198 
	C820.419373,492.240570 821.070007,492.422089 821.668274,492.313965 
	C830.423279,490.731049 833.050598,493.141785 832.119141,501.933533 
	C831.803955,504.908722 831.423279,507.881775 831.258301,510.866058 
	C831.170654,512.451538 830.640015,514.483887 832.498474,515.361511 
	C834.573914,516.341492 835.872681,514.500244 837.195374,513.330444 
	C841.012512,509.954254 843.456116,505.592865 845.745728,501.127716 
	C846.794373,499.082733 847.443298,496.771271 849.401184,495.286194 
	C849.713196,495.482239 850.198547,495.632599 850.212402,495.818054 
	C850.886658,504.868988 842.826477,518.331482 834.641235,521.890259 
	C826.865906,525.270813 821.789490,522.054688 821.706421,513.592896 
	C821.680359,510.940643 821.887146,508.270813 822.202637,505.634857 
	C822.495789,503.185822 823.261353,500.768219 822.134277,498.277771 
	C818.925903,497.310669 816.789734,498.273926 815.069214,501.166077 
	C812.403503,505.647186 808.706055,509.247253 804.528625,512.387939 
	C795.101257,519.475769 788.359009,517.818054 783.895630,506.791656 
	C780.508789,511.673187 776.051575,514.104065 770.227356,513.283569 
	C764.186768,512.432556 762.385132,507.248688 759.899719,502.286743 
	C752.697815,508.193176 746.801514,515.782043 737.047119,516.117981 
	C726.767883,516.471924 721.088074,509.278717 715.327087,500.850708 
	C715.142029,506.944977 715.187195,512.056152 714.365173,517.100769 
	C713.864868,520.171387 712.952209,522.802734 709.255127,522.593933 
	C705.815247,522.399719 705.022766,519.675293 704.890747,516.887024 
	C704.718628,513.250793 704.848633,509.600220 704.848633,504.963287 
	C699.877747,510.358459 694.837524,513.906250 688.142456,514.268372 
	C680.846863,514.662903 678.050110,512.719238 674.329346,504.195831 
	C672.457153,506.692963 670.787537,509.080261 668.952332,511.332672 
	C665.604492,515.441711 661.254211,517.565186 655.911682,517.605103 
	C648.478638,517.660583 645.057800,514.581360 642.897949,505.446289 
	C640.331665,506.578583 637.889954,507.861115 635.313232,508.754517 
	C627.454102,511.479370 622.717163,508.943481 620.802124,500.841003 
	C619.848450,496.805786 619.388794,492.651978 618.754089,488.544312 
	C618.551025,487.229767 618.608276,485.850739 617.204285,484.857635 
	C614.498108,484.999878 613.610840,487.366791 612.477966,489.276031 
	C608.456909,496.052155 606.023071,503.507355 603.461975,510.902039 
	C602.808472,512.789062 602.140442,514.671509 601.523071,516.570435 
	C600.473145,519.799316 598.516052,521.789734 594.886047,521.225708 
	C591.023376,520.625549 590.436279,517.716919 590.453613,514.505676 
	C590.511169,503.843567 590.587769,493.181519 590.655090,482.024109 
M716.197266,442.336578 
	C715.129822,448.067169 715.137451,453.828339 715.665222,459.628723 
	C717.383362,452.836029 718.946838,446.037415 720.177673,439.179138 
	C722.843445,424.325439 726.118958,409.550598 726.677429,394.395935 
	C726.749451,392.441010 727.380127,390.013062 723.790588,388.381653 
	C717.537903,405.768097 717.880310,423.745911 716.197266,442.336578 
M654.422058,502.956757 
	C654.505676,505.498779 653.208984,508.694824 656.322632,510.074829 
	C659.523621,511.493500 661.542297,508.709839 663.438110,506.769653 
	C666.817566,503.311188 669.435486,499.237122 671.470642,494.867584 
	C672.374573,492.926758 674.759705,490.721680 672.694153,488.586365 
	C670.564880,486.385162 667.431396,486.773407 664.698181,487.661926 
	C662.117981,488.500702 660.136047,490.345154 658.611572,492.589081 
	C656.632080,495.502808 655.447998,498.771027 654.422058,502.956757 
M601.427917,435.823120 
	C601.427917,440.805023 601.427917,445.786896 601.427917,450.768799 
	C604.069885,425.975098 608.185608,401.269501 606.332886,376.153839 
	C604.002197,381.088593 603.599365,386.294769 603.354309,391.500397 
	C602.673889,405.959229 602.085083,420.422363 601.427917,435.823120 
M719.762512,487.100494 
	C718.964294,488.245544 717.504089,489.078583 717.938904,490.843964 
	C725.614197,489.728943 730.388428,485.501129 730.023743,480.189240 
	C725.681152,480.563263 725.574585,480.632812 719.762512,487.100494 
z"/>
<path fill="#000000" opacity="1.000000" stroke="none" 
	d="
M385.076477,497.007782 
	C387.663818,494.577118 388.645966,491.897461 388.760254,488.719574 
	C388.818481,487.099731 389.308929,485.420471 389.948334,483.914246 
	C390.877960,481.724426 392.695312,480.471710 395.135345,480.906860 
	C398.218628,481.456696 398.961517,483.972656 398.941010,486.571503 
	C398.909576,490.556610 398.467102,494.537018 398.361603,498.523712 
	C398.318268,500.161987 398.461273,501.882416 398.929871,503.442169 
	C400.179230,507.600708 403.071167,508.815094 406.532349,506.346863 
	C411.361420,502.903229 415.185394,498.976135 414.932251,492.079498 
	C414.639893,484.114899 415.273529,476.104889 415.740936,468.128387 
	C415.993744,463.814484 414.353821,461.975891 410.004578,462.196167 
	C407.537292,462.321075 405.025116,462.053131 402.570099,461.703003 
	C401.451416,461.543488 400.350189,460.754150 400.514160,459.299286 
	C400.644897,458.139526 401.647217,457.747620 402.594177,457.392212 
	C405.339325,456.361908 408.210571,456.671600 411.011017,456.831024 
	C415.014008,457.058960 416.824615,455.534210 416.823456,451.394196 
	C416.822449,447.915863 417.350037,444.431183 417.746552,440.961060 
	C418.032928,438.454742 419.177124,436.243103 421.879211,436.050110 
	C425.055237,435.823212 425.514801,438.505402 425.693970,440.867950 
	C425.970642,444.516937 426.158417,448.187561 426.090332,451.843567 
	C426.022308,455.496460 427.569611,456.863068 431.188812,456.797241 
	C440.183197,456.633667 449.182068,456.678192 458.178833,456.712128 
	C460.441956,456.720642 462.908112,456.372009 464.660828,458.908722 
	C463.503571,461.156555 461.334167,461.099701 459.243896,461.322357 
	C450.115692,462.294647 440.957550,462.460022 431.795349,462.260803 
	C427.706024,462.171936 425.493713,463.797424 425.368500,468.004578 
	C425.031769,479.316956 424.584930,490.626892 424.357635,501.941284 
	C424.274017,506.104187 424.226196,510.819580 428.437866,513.050537 
	C432.529602,515.217957 436.126770,512.164917 439.435913,510.052307 
	C444.220520,506.997681 448.354950,503.098114 452.466492,499.191040 
	C454.217773,497.526886 455.705902,495.407043 458.309784,494.894653 
	C458.539429,495.287231 458.903320,495.673065 458.825897,495.810699 
	C453.053101,506.074768 445.079346,514.215515 434.431427,519.251160 
	C427.478973,522.539185 421.201782,519.847839 417.737701,512.946228 
	C416.645538,510.770294 415.921600,508.409607 415.003784,506.068787 
	C401.397949,519.383362 393.096222,516.350830 387.100189,502.959198 
	C383.115662,505.298370 379.571259,508.430817 374.835907,509.317169 
	C368.176300,510.563751 364.655975,508.767731 362.762695,502.196320 
	C361.665619,498.388489 361.343414,494.361145 360.596893,490.447021 
	C360.232971,488.538910 359.695892,486.663818 359.207397,484.651031 
	C355.837952,485.034485 355.147217,487.525970 354.037079,489.377045 
	C349.545929,496.865814 347.080566,505.199066 344.256134,513.380859 
	C343.606750,515.262024 342.919037,517.158813 341.980377,518.903870 
	C340.801697,521.095276 338.675385,521.516968 336.369019,521.238098 
	C334.103485,520.964172 332.754730,519.584351 332.238556,517.463684 
	C331.927521,516.185730 331.795197,514.834167 331.793640,513.515503 
	C331.761169,485.691895 331.583496,457.866821 331.814880,430.045227 
	C331.958740,412.745544 332.621094,395.444641 335.650970,378.336853 
	C336.268768,374.848572 337.278503,371.523254 339.273499,368.583496 
	C341.113678,365.871826 343.447601,363.538391 346.982483,363.877472 
	C350.603149,364.224792 352.242523,367.114655 353.316528,370.202850 
	C356.128052,378.286957 355.537598,386.643127 354.929382,394.941132 
	C352.761627,424.513885 346.997986,453.589783 342.664062,482.864105 
	C342.179718,486.135529 342.291351,489.495209 342.071136,493.931549 
	C344.644989,489.923218 346.522766,486.714935 348.682831,483.709503 
	C351.178955,480.236603 354.442230,477.704529 358.781677,476.874786 
	C365.837524,475.525635 369.586273,478.218109 370.364319,485.363739 
	C370.759735,488.995056 370.807434,492.662842 371.125641,496.304260 
	C371.686676,502.724731 375.119202,504.345947 380.581177,500.743042 
	C382.098541,499.742096 383.415405,498.437225 385.076477,497.007782 
M349.031433,381.784760 
	C348.859741,379.660278 349.356476,377.373810 347.330353,375.556030 
	C343.218170,401.498474 344.002716,427.675629 342.466187,453.706238 
	C345.262939,430.094208 348.824249,406.555786 349.031433,381.784760 
z"/>
<path fill="#000000" opacity="1.000000" stroke="none" 
	d="
M510.747375,367.852692 
	C498.437500,371.700958 486.687225,375.902283 475.271790,381.010681 
	C471.776733,382.574707 468.293823,384.028931 465.793671,387.228912 
	C464.077393,389.425568 461.536224,389.722900 458.973022,388.638184 
	C455.764740,387.280457 454.981873,385.258911 457.527130,382.512756 
	C459.601532,380.274536 462.174530,378.758057 464.898865,377.456451 
	C491.977966,364.519104 520.662476,356.684204 549.926392,350.687958 
	C554.000244,349.853210 558.330688,350.070892 559.701965,344.284241 
	C560.497742,340.926025 565.234558,340.788696 567.229431,344.029663 
	C568.935974,346.802246 570.918335,346.898193 573.521790,346.451019 
	C604.856323,341.069092 636.284119,336.445465 668.108643,335.207611 
	C677.770020,334.831848 687.411255,335.229797 696.980286,336.727936 
	C699.621399,337.141449 702.191284,337.873962 704.528442,339.226410 
	C709.404419,342.047943 710.617004,345.912842 708.278381,351.067474 
	C705.550598,357.079956 700.528198,360.950134 695.469604,364.788818 
	C682.128967,374.912354 666.480530,378.571411 650.352661,380.844727 
	C648.322388,381.130920 645.946167,381.011719 645.604858,378.448944 
	C645.282471,376.028717 647.670715,375.681305 649.393250,375.303467 
	C652.802612,374.555725 656.285950,374.146484 659.696472,373.403503 
	C673.705505,370.351593 685.120483,362.812469 694.792725,352.528107 
	C699.639893,347.374176 698.511108,343.675873 691.520447,342.861725 
	C679.594788,341.472870 667.534912,341.780853 655.597473,342.644196 
	C628.208252,344.625031 601.065857,348.713409 573.978271,353.183868 
	C569.681580,353.893005 568.213745,355.422485 568.221863,359.891968 
	C568.348145,429.034515 568.301270,498.177338 568.267578,567.320129 
	C568.265747,570.979187 568.190613,574.654236 567.836731,578.291382 
	C567.607483,580.648071 566.198120,582.273376 563.528381,582.258423 
	C560.896301,582.243652 559.424133,580.682739 559.169983,578.314392 
	C558.797913,574.847534 558.698303,571.338135 558.696777,567.846802 
	C558.667053,499.537048 558.669617,431.227264 558.661560,362.917511 
	C558.660767,356.004364 558.644043,355.982117 551.756714,357.432709 
	C538.074829,360.314270 524.520508,363.704102 510.747375,367.852692 
z"/>
<path fill="#000000" opacity="1.000000" stroke="none" 
	d="
M282.070465,520.071899 
	C304.719269,497.041199 312.628571,469.751892 301.173889,440.077271 
	C285.060364,398.333557 252.221573,384.458801 208.760040,391.968628 
	C223.952576,383.016205 256.687988,383.578766 279.222168,397.540527 
	C310.224091,416.748627 324.758667,451.961700 316.269226,487.701447 
	C308.449371,520.622131 278.378387,546.435730 243.683670,549.074036 
	C212.496689,551.445679 182.307648,535.452026 169.090668,511.933014 
	C171.668716,511.957153 172.555328,513.981506 173.735336,515.275940 
	C185.558594,528.245239 199.777130,536.991394 217.274246,539.730469 
	C240.441574,543.357239 261.181458,537.907104 279.125946,522.555237 
	C280.011627,521.797546 280.915405,521.060974 282.070465,520.071899 
z"/>
<path fill="#000000" opacity="1.000000" stroke="none" 
	d="
M139.331329,393.574402 
	C147.127686,393.533447 154.470810,393.235199 161.788284,393.544159 
	C166.475861,393.742096 169.189941,391.660431 171.491959,387.956451 
	C176.679962,379.608887 182.188721,371.460052 187.344559,363.093292 
	C190.923218,357.285980 195.830109,354.650482 202.670105,354.686615 
	C228.167953,354.821259 253.667191,354.806641 279.165283,354.699921 
	C285.616455,354.672943 290.665405,356.963806 293.611877,362.686493 
	C298.640991,372.454010 303.358185,382.382385 308.167419,392.262146 
	C308.417938,392.776794 308.304932,393.468445 308.424652,394.765717 
	C305.661652,392.990692 304.932190,390.521149 303.657959,388.535370 
	C299.519257,382.085480 295.469971,375.577667 291.437347,369.060577 
	C288.857880,364.891907 285.331207,362.839203 280.280884,362.862640 
	C255.116165,362.979462 229.950531,362.980225 204.785645,362.894165 
	C200.280243,362.878754 197.250122,364.710083 194.958893,368.469696 
	C189.496735,377.432526 183.711700,386.203186 178.419556,395.263214 
	C175.434494,400.373505 171.293274,402.269623 165.626801,402.170166 
	C155.631744,401.994812 145.632339,402.004547 135.635056,402.035980 
	C120.454536,402.083710 112.744545,408.789368 112.532127,424.025696 
	C112.097755,455.183624 112.390999,486.352539 112.512581,517.516479 
	C112.533386,522.847717 113.696281,528.045410 116.822495,532.536926 
	C114.889221,533.911621 113.887253,532.642761 112.994698,531.853333 
	C107.271729,526.791321 103.627853,520.687744 103.630852,512.774292 
	C103.642159,482.942657 103.622391,453.111053 103.617813,423.279419 
	C103.614815,403.726837 113.370995,393.753937 132.874268,393.403656 
	C134.870255,393.367828 136.869507,393.513123 139.331329,393.574402 
z"/>
<path fill="#000000" opacity="1.000000" stroke="none" 
	d="
M192.127899,435.240906 
	C193.423386,445.010437 190.849869,452.358521 182.038605,457.034790 
	C177.595322,459.392914 177.251114,464.054260 177.555634,468.453979 
	C180.003983,503.827026 209.415543,524.602173 236.969696,522.808044 
	C238.578659,522.703247 240.293427,522.331665 241.856079,523.260193 
	C237.330948,528.333801 216.906723,526.614990 202.687393,519.991760 
	C179.229279,509.065216 164.433746,482.230713 167.860931,456.827301 
	C171.624847,428.927917 192.553284,407.621948 220.671082,403.064545 
	C243.723160,399.328186 271.994934,412.383820 281.172150,431.357361 
	C278.854248,431.240356 277.931030,429.548950 276.910675,428.335205 
	C259.500824,407.624878 227.653412,402.288910 202.681290,419.039703 
	C197.131134,422.762604 191.677032,426.885559 192.127899,435.240906 
z"/>
<path fill="#000000" opacity="1.000000" stroke="none" 
	d="
M257.804535,638.817017 
	C251.318466,639.146790 245.138611,639.681885 238.699127,638.126587 
	C246.636734,634.128723 243.399689,627.182922 243.977448,621.401123 
	C244.251846,618.655090 243.086990,616.941833 240.052719,616.880493 
	C236.065262,616.799927 232.080414,616.565430 228.092987,616.516846 
	C224.339844,616.471069 222.612030,618.372803 223.047882,622.161255 
	C223.123505,622.818542 223.048172,623.491943 223.071228,624.156799 
	C223.248795,629.274841 221.778168,635.037109 228.782349,637.874084 
	C221.672501,639.727539 215.001724,639.567932 208.321350,638.599854 
	C208.316605,636.240479 209.431015,635.878723 210.615387,635.675110 
	C213.109604,635.246094 213.722870,633.577332 213.720352,631.329590 
	C213.709396,621.512634 213.477646,611.684204 213.892532,601.883972 
	C214.073853,597.601013 210.242661,597.306763 207.668594,594.151672 
	C215.090469,593.259216 221.551102,593.705933 228.616577,594.482971 
	C221.425583,597.473206 223.192108,603.262146 223.035065,608.434875 
	C222.934616,611.742737 224.438599,612.878662 227.564255,612.707214 
	C230.218552,612.561646 232.933670,612.994751 235.537735,612.606873 
	C238.349625,612.188049 242.263046,614.676392 243.770187,610.316223 
	C245.547623,605.174194 243.362717,598.486816 239.526901,596.031250 
	C239.160233,595.796509 238.973648,595.280457 238.079117,594.004272 
	C245.398056,593.385193 252.006714,593.536255 258.698181,593.924744 
	C258.603790,594.956360 258.645721,595.524536 258.535461,595.555725 
	C253.166824,597.077148 253.031067,601.164612 253.158005,605.722046 
	C253.371063,613.370361 253.260529,621.029724 253.178421,628.683289 
	C253.142517,632.029602 253.352188,635.026978 257.325958,636.161133 
	C258.323944,636.445984 258.796478,637.472717 257.804535,638.817017 
z"/>
<path fill="#000000" opacity="1.000000" stroke="none" 
	d="
M706.147217,629.118835 
	C707.041443,620.373291 706.566223,612.050232 706.506042,603.729736 
	C706.475830,599.557556 704.569946,596.632690 700.167786,595.151001 
	C700.451660,594.786255 700.735474,594.421509 701.019348,594.056763 
	C707.426025,594.056763 713.832764,594.056763 720.221802,594.056763 
	C720.282776,594.797974 720.406494,595.360474 720.320801,595.394287 
	C712.847473,598.353394 715.664612,604.802246 715.391663,610.129944 
	C715.276550,612.376709 717.124939,612.664734 718.907715,612.666504 
	C723.570923,612.671021 728.234802,612.621704 732.897156,612.682434 
	C735.727844,612.719238 736.714905,611.285217 736.646118,608.638916 
	C736.506714,603.273560 737.972900,597.299561 729.894836,595.129333 
	C730.281128,594.808899 730.667419,594.488525 731.053711,594.168091 
	C737.666809,594.168091 744.279907,594.168091 750.893005,594.168091 
	C751.240540,594.527954 751.588135,594.887817 751.935669,595.247681 
	C742.613403,597.706909 745.669739,604.696045 745.348938,610.334961 
	C745.075073,615.149353 745.332336,619.992065 745.277954,624.821411 
	C745.220520,629.927917 744.161804,635.424194 751.450500,637.730835 
	C744.299072,639.666931 737.781311,639.547058 731.162415,638.612427 
	C731.270874,637.573914 731.191223,637.169434 731.356079,636.942505 
	C732.687988,635.108887 736.322266,635.870483 736.426514,632.791748 
	C736.583923,628.144043 736.545715,623.481140 736.350281,618.834778 
	C736.282471,617.223022 734.578979,617.018066 733.266052,616.834839 
	C728.459778,616.164307 723.634644,616.273132 718.818176,616.696045 
	C717.679993,616.796082 716.240784,616.946594 715.817017,618.160034 
	C714.635986,621.542236 715.578735,625.088684 715.292908,628.549438 
	C714.992188,632.191528 715.640625,635.185669 719.748718,636.314026 
	C720.225830,636.445007 720.517395,637.251038 720.917236,637.773193 
	C716.904480,639.971313 703.603882,639.773499 700.262878,637.278748 
	C703.384155,635.518555 707.054871,634.098572 706.147217,629.118835 
z"/>
<path fill="#000000" opacity="1.000000" stroke="none" 
	d="
M292.052246,638.332825 
	C279.145721,632.337402 274.047058,620.521973 278.483521,607.650330 
	C282.366547,596.384460 295.303162,590.180481 308.471313,593.269104 
	C321.911987,596.421692 329.541992,607.755310 326.975464,620.755127 
	C324.375610,633.923645 312.144226,642.231934 298.737885,639.890076 
	C296.617065,639.519653 294.533295,638.937317 292.052246,638.332825 
M290.223480,629.169067 
	C293.545807,634.550476 298.294861,636.857666 304.580109,635.779480 
	C310.616272,634.744141 314.146912,630.807373 316.288818,625.403870 
	C318.183289,620.624695 318.264282,615.661499 317.119812,610.724609 
	C315.016479,601.651184 309.402313,596.254700 302.368317,596.308716 
	C294.905609,596.366028 289.213989,601.815674 287.029358,610.791260 
	C285.485901,617.132629 286.946381,622.929443 290.223480,629.169067 
z"/>
<path fill="#000000" opacity="1.000000" stroke="none" 
	d="
M436.731995,635.933228 
	C430.746552,639.304565 424.679749,640.919189 418.217926,639.889832 
	C402.634277,637.407471 394.275024,626.086121 396.892242,611.299255 
	C399.190704,598.313416 412.060211,590.293884 426.562439,592.989258 
	C436.323029,594.803223 443.743011,599.852112 445.837341,610.020874 
	C447.903595,620.053162 446.121796,629.263062 436.731995,635.933228 
M435.482605,607.200378 
	C431.639587,599.016968 426.702942,595.545166 420.080383,596.368164 
	C413.822327,597.145813 407.813507,602.960388 406.561859,609.982666 
	C405.746033,614.559937 405.792877,619.213745 407.166840,623.777039 
	C409.663483,632.069153 414.680389,636.255066 421.937317,635.969727 
	C428.982391,635.692627 434.877319,630.244202 436.629456,622.594116 
	C437.775391,617.590820 437.366089,612.744324 435.482605,607.200378 
z"/>
<path fill="#000000" opacity="1.000000" stroke="none" 
	d="
M539.216431,611.011108 
	C539.223083,616.174500 539.144592,620.842407 539.246460,625.506348 
	C539.351318,630.303772 537.785522,635.865906 546.122009,637.135071 
	C540.687195,639.847473 527.942383,639.752686 524.577515,637.835449 
	C524.448730,636.258850 525.563171,635.897034 526.753296,635.671692 
	C528.913513,635.262695 529.708008,633.885254 529.892334,631.796204 
	C530.802673,621.481140 530.774841,611.188171 529.950806,600.855652 
	C529.660645,597.217102 526.263672,597.042114 524.425415,595.146667 
	C525.016357,594.386780 525.301636,593.700134 525.586365,593.700378 
	C533.399963,593.706665 541.232422,593.480164 549.019409,593.968262 
	C553.265076,594.234436 557.304626,596.062256 558.165039,601.055359 
	C559.131287,606.662476 555.737915,609.675537 549.649475,612.266235 
	C562.292480,616.915527 558.827332,631.552795 569.470154,638.117493 
	C564.215759,640.026550 560.531067,639.719604 557.238647,636.527954 
	C554.920288,634.280518 553.445679,631.452332 552.287048,628.497742 
	C549.817444,622.200317 548.514038,615.133240 540.559021,612.926025 
	C541.950623,609.865662 544.502869,610.165466 546.271729,609.203491 
	C549.603149,607.392212 550.461243,604.585938 549.712036,601.178406 
	C548.933899,597.639282 546.048340,597.341003 543.090271,597.198669 
	C540.346619,597.066772 539.098877,598.231689 539.182068,601.015381 
	C539.276611,604.179016 539.208130,607.347473 539.216431,611.011108 
z"/>
<path fill="#000000" opacity="1.000000" stroke="none" 
	d="
M465.847290,625.749146 
	C459.976501,606.407349 470.211121,592.525146 489.833008,592.679443 
	C491.331146,592.691223 492.828674,592.772522 494.326691,592.812988 
	C503.110748,593.050232 501.261566,593.110779 503.013214,601.566467 
	C503.261780,602.766357 503.156219,603.972778 501.713348,604.409912 
	C500.272552,604.846558 499.390228,603.906067 499.058990,602.767822 
	C497.769379,598.336304 495.012115,596.230042 490.304871,596.265808 
	C484.653931,596.308716 480.302673,598.637085 477.192474,603.176453 
	C472.013092,610.735901 472.520996,623.211609 478.161407,630.446106 
	C479.709595,632.431885 481.437286,634.377930 483.911407,635.083862 
	C487.744202,636.177429 491.710602,637.038086 495.348724,634.490234 
	C496.183014,633.906006 495.960571,622.049866 495.183105,621.247070 
	C494.653717,620.700378 493.840027,620.304993 493.085999,620.125610 
	C491.501526,619.748535 490.027039,619.246216 490.434113,617.268494 
	C490.785400,615.561890 492.391418,615.791321 493.697205,615.678528 
	C504.127563,614.777588 504.253296,614.890869 504.286652,625.348083 
	C504.287170,625.514587 504.288116,625.681152 504.288666,625.847656 
	C504.332153,638.754700 504.351501,638.996399 491.340302,640.036865 
	C481.606354,640.815247 470.411255,636.967041 465.847290,625.749146 
z"/>
<path fill="#000000" opacity="1.000000" stroke="none" 
	d="
M617.152588,607.984253 
	C619.427307,614.292847 621.566711,620.235107 623.746887,626.162292 
	C625.377075,630.594238 626.576538,635.312439 631.667786,637.891602 
	C624.875305,639.607666 618.577576,639.483582 612.262268,638.726196 
	C611.770203,634.872253 618.008911,636.208618 616.272034,632.011780 
	C614.821777,628.507446 614.769165,624.417542 612.255432,621.373535 
	C610.821350,619.637024 600.008301,619.676941 598.980408,621.518494 
	C597.378357,624.388916 596.709961,627.778748 595.119019,630.657349 
	C592.381897,635.609619 598.671509,635.093140 599.631165,638.665466 
	C594.170593,639.333374 589.139893,639.887451 582.805664,638.042725 
	C593.550842,631.883789 593.397705,621.034546 597.607971,612.569946 
	C600.040161,607.680237 601.711182,602.400940 603.566895,597.240173 
	C604.483765,594.690308 605.976562,593.624634 608.742981,593.600098 
	C611.521729,593.575500 612.530029,595.120667 613.301514,597.296814 
	C614.523315,600.743042 615.788147,604.173950 617.152588,607.984253 
M608.590027,608.826904 
	C607.871826,606.911316 607.153625,604.995728 606.027649,601.992493 
	C604.315918,607.145447 602.013184,610.738403 601.572083,615.512329 
	C604.684143,615.813904 607.454285,616.625793 610.475891,614.909851 
	C609.862671,612.957642 609.328796,611.257874 608.590027,608.826904 
z"/>
<path fill="#000000" opacity="1.000000" stroke="none" 
	d="
M656.093994,639.217407 
	C650.816589,639.306396 650.816589,639.306396 647.681458,637.173828 
	C655.980774,635.220276 653.628967,628.873962 653.784485,623.614441 
	C653.947021,618.119690 653.830933,612.615967 653.802490,607.116394 
	C653.777344,602.268860 654.861511,596.939209 648.330811,595.426697 
	C648.973022,593.712219 649.799744,593.590454 650.645081,593.591431 
	C657.810364,593.599854 664.979431,593.486877 672.139709,593.686218 
	C678.205383,593.855103 682.300476,597.095764 683.196594,601.945740 
	C684.182861,607.283203 681.174072,612.065979 675.387512,614.358887 
	C670.104675,616.452209 667.038086,616.271118 664.682190,613.469360 
	C666.778870,612.784668 668.850281,612.335999 670.715454,611.452209 
	C674.728821,609.550476 675.353088,605.948181 674.557007,602.110535 
	C673.784729,598.387634 670.888428,597.375244 667.392029,597.220703 
	C664.119568,597.075989 662.948669,598.483521 662.991882,601.653931 
	C663.121521,611.151428 663.337341,620.659241 663.019531,630.146240 
	C662.878662,634.352661 665.824585,635.624756 669.790100,637.816284 
	C664.587219,640.153015 660.461426,638.793945 656.093994,639.217407 
z"/>
<path fill="#000000" opacity="1.000000" stroke="none" 
	d="
M191.210831,604.755188 
	C188.295059,613.858215 178.024521,618.794617 172.714737,613.965149 
	C173.553055,611.946960 175.611740,612.823975 177.029709,612.237122 
	C181.264313,610.484802 183.566559,606.519409 182.553452,602.243103 
	C181.691132,598.603149 178.027878,596.710571 173.393585,597.254395 
	C171.334671,597.496033 170.376968,598.387878 170.413116,600.412354 
	C170.594330,610.560242 170.176300,620.707214 170.707672,630.864136 
	C170.908127,634.695557 174.136520,635.319641 176.849960,638.222656 
	C169.356857,639.892578 162.851761,639.435059 156.339951,638.681335 
	C156.339951,637.624878 156.269333,637.039124 156.350021,637.017456 
	C162.056152,635.486633 161.872833,631.087280 161.743454,626.487000 
	C161.565659,620.165649 161.716263,613.835388 161.704010,607.508972 
	C161.690903,600.738892 161.679688,600.738892 156.243317,594.393677 
	C156.852249,594.081970 157.413040,593.545532 157.974258,593.545105 
	C165.620285,593.539185 173.284149,593.303772 180.907043,593.750000 
	C187.447495,594.132935 190.462433,597.629578 191.210831,604.755188 
z"/>
<path fill="#000000" opacity="1.000000" stroke="none" 
	d="
M781.530029,635.416626 
	C785.548767,628.537598 785.144714,621.402954 782.082092,614.952759 
	C778.568970,607.553833 774.757324,600.076904 767.032837,594.198120 
	C774.739929,594.198120 781.214478,594.198120 787.836975,594.198120 
	C787.272217,597.139771 784.763428,596.788208 783.254578,598.582825 
	C785.086365,603.274597 787.529236,607.806091 790.964478,612.658752 
	C794.534424,607.712891 797.636902,603.293274 799.983459,598.614136 
	C799.099976,595.996094 795.569702,597.226929 794.949951,593.760010 
	C800.323425,593.533264 805.501282,593.385315 810.946106,594.644226 
	C802.469666,598.958130 799.433716,607.374146 794.947815,614.468872 
	C791.269043,620.286865 793.245300,627.081177 793.674255,633.463318 
	C793.841125,635.945190 798.089233,635.096191 798.373840,638.739014 
	C791.717651,639.555725 785.176208,639.397095 778.728760,638.890137 
	C778.001709,635.946228 779.796265,635.954895 781.530029,635.416626 
z"/>
<path fill="#000000" opacity="1.000000" stroke="none" 
	d="
M379.533203,597.691406 
	C379.806671,599.078979 380.077240,600.051270 380.154297,601.038635 
	C380.244904,602.200012 380.284424,603.477600 378.865570,603.950806 
	C377.470459,604.416138 376.697876,603.454102 376.062531,602.442322 
	C375.355560,601.316528 374.808655,600.084106 374.047455,598.999695 
	C372.524353,596.829834 370.210022,597.208740 368.116486,597.568359 
	C365.837830,597.959656 366.231445,600.025208 366.226257,601.612427 
	C366.195770,610.935791 366.291534,620.259827 366.210815,629.582458 
	C366.183929,632.691895 366.689117,635.190857 370.172699,636.118958 
	C370.963348,636.329651 371.481506,637.122803 371.000153,638.845703 
	C364.736298,639.388184 358.274200,639.718689 351.174408,637.937134 
	C360.040222,634.273071 356.518860,626.968140 356.937164,621.082397 
	C357.384583,614.787109 357.095276,608.435730 357.026642,602.109863 
	C357.005890,600.194824 357.351318,597.842041 354.477478,597.477356 
	C352.058807,597.170349 349.774292,597.327698 348.610718,600.035339 
	C348.151337,601.104309 347.647125,602.165527 347.045258,603.158691 
	C346.342712,604.318115 344.947906,604.926025 344.132812,603.904175 
	C342.120819,601.381714 343.951965,598.495117 343.972473,595.770752 
	C343.986176,593.945984 345.504028,593.533081 347.222748,593.538147 
	C356.876648,593.566711 366.532654,593.613281 376.183807,593.433228 
	C379.241364,593.376282 379.254822,595.247925 379.533203,597.691406 
z"/>
<path fill="#000000" opacity="1.000000" stroke="none" 
	d="
M133.962357,384.407043 
	C134.619125,383.371185 135.049942,382.341309 135.700195,382.176392 
	C144.015518,380.066895 152.411438,380.326691 160.744949,381.939941 
	C162.627838,382.304504 163.446228,384.360565 163.190353,386.376862 
	C162.910492,388.581970 161.596878,390.324524 159.385849,390.359955 
	C151.921799,390.479584 144.441452,390.535034 136.992432,390.140625 
	C134.265289,389.996216 133.480835,387.442749 133.962357,384.407043 
z"/>
<path fill="#000000" opacity="1.000000" stroke="none" 
	d="
M399.120361,469.211792 
	C397.127167,470.984894 395.086884,472.339874 393.400421,469.907501 
	C391.969635,467.843964 392.513550,465.359497 394.310394,463.575073 
	C395.808319,462.087494 397.863953,461.480865 399.701996,462.881653 
	C402.353546,464.902405 400.536835,466.948578 399.120361,469.211792 
z"/>
<path fill="#000000" opacity="1.000000" stroke="none" 
	d="
M282.863281,442.947266 
	C284.480621,441.178955 285.965210,441.217255 287.359497,442.643311 
	C288.412842,443.720673 288.468750,445.032135 287.662567,446.277313 
	C286.977417,447.335541 285.887634,447.872559 284.664124,447.513977 
	C282.464691,446.869415 281.963043,445.303223 282.863281,442.947266 
z"/>
<path fill="#000000" opacity="1.000000" stroke="none" 
	d="
M195.026031,399.311981 
	C193.939728,396.664459 194.546768,395.053741 197.188019,394.857727 
	C198.931168,394.728363 200.207855,395.933838 199.974899,397.553802 
	C199.569397,400.373688 197.671539,400.827789 195.026031,399.311981 
z"/>
</svg>